<svg viewBox="0 0 236 153" xmlns="http://www.w3.org/2000/svg">
  <g transform="translate(1 1)" fill="none" fill-rule="evenodd">
    <rect stroke="#434D58" stroke-width="3" fill="#FFF" x="51" y="38.5" width="165" height="111" rx="6.8"/>
    <rect stroke="#434D58" stroke-width="3" fill="#EDF3F9" x="59" y="48.5" width="148" height="91" rx="1.1"/>
    <path d="M226.8 150H40.2c-1.7944131.0002-3.513916-.719402-4.7733243-1.997607-1.2594082-1.278205-1.953458-3.00818-1.9266757-4.802393v-1c-.0273287-.600602.1923348-1.186222.607914-1.620691.4155791-.434469.9908631-.67993 1.592086-.679309h195.6c1.215026 0 2.2.984974 2.2 2.2v1c0 3.700308-2.999692 6.7-6.7 6.7v.2z" stroke="#434D58" stroke-width="3" fill="#FFF"/>
    <g opacity=".1" style="mix-blend-mode:multiply" transform="translate(85 65)">
      <rect fill="#000" x=".5" y="1" width="110" height="62" rx="4.5"/>
      <rect stroke="#000" stroke-width="3" stroke-linecap="round" stroke-linejoin="round" x="1" y=".5" width="110" height="62" rx="4.5"/>
    </g>
    <rect fill="#FFF" x="81.5" y="61" width="110" height="62" rx="4.5"/>
    <rect stroke="#434D58" stroke-width="3" stroke-linecap="round" stroke-linejoin="round" x="81" y="61.5" width="110" height="62" rx="4.5"/>
    <path d="M81.4 73.7h110" stroke="#434D58" stroke-width="3"/>
    <rect fill="#C5CED3" x="88.5" y="82" width="16" height="16" rx=".6"/>
    <rect fill="#C5CED3" x="88.5" y="101" width="16" height="16" rx=".6"/>
    <rect fill="#C5CED3" x="107.5" y="82" width="16" height="16" rx=".6"/>
    <rect fill="#C5CED3" x="107.5" y="101" width="16" height="16" rx=".6"/>
    <rect fill="#C5CED3" x="126.5" y="82" width="16" height="16" rx=".6"/>
    <rect fill="#C5CED3" x="145.5" y="82" width="38" height="35" rx=".6"/>
    <rect fill="#C5CED3" x="126.5" y="101" width="16" height="16" rx=".6"/>
    <circle fill="#E74C3C" cx="91.3" cy="67.2" r="2"/>
    <circle fill="#F5B336" cx="97.5" cy="67.2" r="2"/>
    <circle fill="#2ECC71" cx="103.7" cy="67.2" r="2"/>
    <g opacity=".1" style="mix-blend-mode:multiply" transform="translate(39 26)">
      <circle fill="#000" cx="20.1" cy="20.8" r="20"/>
      <circle stroke="#000" stroke-width="3" stroke-linecap="round" stroke-linejoin="round" cx="20.1" cy="20.8" r="20"/>
    </g>
    <circle fill="#4DBFFF" cx="55.1" cy="42.8" r="20"/>
    <circle stroke="#434D58" stroke-width="3" stroke-linecap="round" stroke-linejoin="round" cx="55.1" cy="42.8" r="20"/>
    <path d="M64.8 52.8l-3-3" stroke="#434D58" stroke-width="2" fill="#FFF" stroke-linecap="round" stroke-linejoin="round"/>
    <circle stroke="#434D58" stroke-width="2" fill="#FFF" stroke-linecap="round" stroke-linejoin="round" cx="53.3" cy="41.4" r="8.6"/>
    <path d="M48.7 40.4c.3935815-1.8562532 1.8437468-3.3064185 3.7-3.7" stroke="#434D58" stroke-width="2" fill="#FFF" stroke-linecap="round" stroke-linejoin="round"/>
    <path d="M26.5 39.5h-5m8.4-12L25 25m12.6-4.5L35 15.8" stroke="#434D58" stroke-width="3" stroke-linecap="round" stroke-linejoin="round"/>
    <path d="M60.2 10.5V5m-2.7 2.8H63" stroke="#2ECC71" stroke-width="2" stroke-linecap="round" stroke-linejoin="round"/>
    <path d="M23 4.6l3.8-4-3.8 4zm-.2-4l4 4-4-4zm0 59.2l1 1.8 1.6 1-1.7 1-1 1.7-1-1.8-1.7-1 1.7-1 1-1.7h.1z" stroke="#F1C40F" stroke-width="2" stroke-linecap="round" stroke-linejoin="round"/>
    <circle stroke="#4DBFFF" stroke-width="2" stroke-linecap="round" stroke-linejoin="round" cx="3.6" cy="27.8" r="2.7"/>
  </g>
</svg>
