<svg viewBox="0 0 236 144" xmlns="http://www.w3.org/2000/svg">
  <g transform="translate(2 1)" fill="none" fill-rule="evenodd">
    <path d="M140.57 143h70.37c10.44-10 17-23.5 17-38.76-.016569-28.8126954-23.387305-52.1565685-52.2-52.14-28.812695.0165685-52.156569 23.3873046-52.14 52.2-.02 15.26 6.53 28.7 16.97 38.7z" fill="#F5B336"/>
    <path stroke="#434D58" stroke-width="3" fill="#EDF3F9" d="M108.5 58.5h68v83h-68z"/>
    <path stroke="#434D58" stroke-width="3" fill="#EDF3F9" d="M108.82 141.5H37.5V89.3l69.59-48.66z"/>
    <path stroke="#434D58" stroke-width="3" fill="#4DBFFF" d="M20.783 92.684l65.83-44.554 5.045 7.453-65.83 44.554z"/>
    <path d="M86.5 36.5h22v105h-22v-105zm48 57v38h-19v-38h19zm18 0v38h-18v-38h18z" stroke="#434D58" stroke-width="3" fill="#FFF" fill-rule="nonzero"/>
    <path stroke="#434D58" stroke-width="3" fill="#FFF" d="M169.5 93.5v38h-18v-38z"/>
    <path d="M86 48.5h11m2 10h11m-24 10h11m1 10h11m-23 10h11m-11 40h11m1-30h11m-23 10h11m1 10h11" stroke="#C5CED3" stroke-width="3"/>
    <path stroke="#434D58" stroke-width="3" fill="#FFF" d="M52.5 104.5h19v37h-19z"/>
    <path d="M0 141.5h232" stroke="#434D58" stroke-width="3" stroke-linecap="round" stroke-linejoin="round"/>
    <path stroke="#434D58" stroke-width="3" fill="#FFF" d="M115.5 73.5h54v10h-54z"/>
    <path d="M177.01 117.08l-.24 21.48" stroke="#434D58" stroke-width="3"/>
    <path d="M189.14 112c0 6.55-5.6 11.85-12.5 11.85s-12.5-5.31-12.5-11.85c0-4.17 5-14.76 8.66-21.91.749368-1.3680925 2.185119-2.2186894 3.745-2.2186894 1.559881 0 2.995632.8505969 3.745 2.2186894 3.71 7.13 8.85 17.74 8.85 21.91z" stroke="#434D58" stroke-width="3" fill="#2ECC71" stroke-linecap="round"/>
    <path d="M171.63 107.38l2.24 1.89 2.25-1.89 2.25 1.89 2.26-1.89m-9 5l2.24 1.89 2.25-1.89 2.25 1.89 2.26-1.89" stroke="#1F864B" stroke-width="2" stroke-linecap="round" stroke-linejoin="round"/>
    <path d="M58.5 123v5" stroke="#434D58" stroke-width="3" stroke-linecap="round" stroke-linejoin="round"/>
    <path stroke="#434D58" stroke-width="3" d="M86.5 36.5h22v105h-22z"/>
    <g opacity=".05" style="mix-blend-mode:multiply" transform="translate(82 25)">
      <circle fill="#000" cx="20.15" cy="20.74" r="20"/>
      <circle stroke="#000" stroke-width="3" stroke-linecap="round" stroke-linejoin="round" cx="20.15" cy="20.74" r="20"/>
    </g>
    <circle fill="#4DBFFF" cx="98.15" cy="41.74" r="20"/>
    <circle stroke="#434D58" stroke-width="3" stroke-linecap="round" stroke-linejoin="round" cx="98.15" cy="41.74" r="20"/>
    <path d="M71 38.5h-5m6.95-11.94l-4.72-2.72m12.62-4.39l-2.72-4.71" stroke="#434D58" stroke-width="3" stroke-linecap="round" stroke-linejoin="round"/>
    <path d="M65.94 4.22L69.79.37l-3.85 3.85zm0-3.85l3.85 3.85L65.94.37zM55.71 48.8l.96 1.76 1.76.96-1.76.96-.96 1.76-.96-1.76-1.76-.96 1.76-.96.96-1.76z" stroke="#F1C40F" stroke-width="2" stroke-linecap="round" stroke-linejoin="round"/>
    <circle stroke="#4DBFFF" stroke-width="2" stroke-linecap="round" stroke-linejoin="round" cx="46.58" cy="27.49" r="2.72"/>
    <circle stroke="#434D58" stroke-width="2" fill="#FFF" stroke-linecap="round" stroke-linejoin="round" cx="98.65" cy="41.32" r="9"/>
    <path d="M95 42h.81c-.3435317-.6869204-.5667646-1.4276478-.66-2.19.1470392-1.8178995 1.6762928-3.2117049 3.5-3.19 1.6 0 2.73.44 3.34 1.61l-1.63.88c-.242666-.5999507-.8228532-.9946358-1.47-1-.8779612.1389775-1.5209317.9011743-1.51 1.79.1210426.7484819.3571693 1.4737282.7 2.15H100v1h-1.46a.44000184.44000184 0 0 1 0-.13c-.029435.5999851-.3924555 1.1329301-.94 1.38a2.68000115 2.68000115 0 0 1 .7-.21c.83 0 1.16.42 1.87.42.474772.0223761.93298-.1771663 1.24-.54l.82 1.6c-.587002.5110803-1.35375.7666632-2.13.71-1.25 0-1.73-.63-2.6-.63-.5916198.0449842-1.1640478.2300807-1.67.54l-.69-1.38c.91-.43 1.57-.66 1.57-1.38 0-.27-.07-.37-.17-.37H95V42z" fill="#434D58"/>
    <path d="M219.33 121.87c-1.038608-3.029295-3.210667-5.538275-6.06-7-1.713021-.952219-3.555741-1.649556-5.47-2.07-3.880105-1.078643-7.964638-1.195344-11.9-.34-2.56853.389144-5.06342 1.164582-7.4 2.3-3.55 1.77-6 4.26-7 7.06l-.5 1.68h38.84l-.51-1.63z" stroke="#424D57" stroke-width="3" fill="#FFF"/>
    <path d="M167.89 129.5c0 3.38 2.29 6 5.11 6h48.76c2.82 0 5.11-2.62 5.11-6s-2.29-6-5.11-6H173c-2.82 0-5.11 2.62-5.11 6z" stroke="#424D57" stroke-width="3" fill="#4DBFFF"/>
    <path d="M186 132.51c.436117 1.872831-.124622 3.838157-1.483328 5.198897-1.358705 1.36074-3.323191 1.924418-5.196672 1.491103-2.059675-.472-3.668-2.080325-4.14-4.14-.436117-1.872831.124622-3.838157 1.483328-5.198897 1.358705-1.36074 3.323191-1.924418 5.196672-1.491103 2.059675.472 3.668 2.080325 4.14 4.14zm33 0c.436117 1.872831-.124622 3.838157-1.483328 5.198897-1.358705 1.36074-3.323191 1.924418-5.196672 1.491103-2.059675-.472-3.668-2.080325-4.14-4.14-.436117-1.872831.124622-3.838157 1.483328-5.198897 1.358705-1.36074 3.323191-1.924418 5.196672-1.491103 2.059675.472 3.668 2.080325 4.14 4.14z" stroke="#424D57" stroke-width="3" fill="#EBEAEB" fill-rule="nonzero"/>
    <path d="M202.39 112v23" stroke="#424D57" stroke-width="3"/>
    <path d="M191.33 128.48h5" stroke="#424D57" stroke-width="2" stroke-linecap="round"/>
    <path d="M112.23 9.55V4.11m-2.72 2.72h5.44" stroke="#2ECC71" stroke-width="2" stroke-linecap="round" stroke-linejoin="round"/>
  </g>
</svg>
